<svg viewBox="0 0 80 28" xmlns="http://www.w3.org/2000/svg" fill="#D4AF37">
  <!-- M — geometric letterform -->
  <path d="M 0,28 L 0,0 L 4.5,0 L 12.5,11 L 20.5,0 L 25,0 L 25,28 L 20.5,28 L 20.5,6 L 12.5,16 L 4.5,6 L 4.5,28 Z"/>
  <!-- T — crossbar + stem -->
  <path d="M 32,0 L 54,0 L 54,4.5 L 45.25,4.5 L 45.25,28 L 40.75,28 L 40.75,4.5 L 32,4.5 Z"/>
  <!-- B — vertical stem -->
  <path d="M 61,0 L 61,28 L 65.5,28 L 65.5,0 Z"/>
  <!-- B — top bowl ring -->
  <path fill-rule="evenodd" d="M 65.5,0 A 13,6.75 0 0 1 65.5,13.5 Z M 65.5,3 A 9.5,3.75 0 0 1 65.5,11 Z"/>
  <!-- B — bottom bowl ring (slightly wider) -->
  <path fill-rule="evenodd" d="M 65.5,14.5 A 14,6.75 0 0 1 65.5,28 Z M 65.5,17.5 A 10,3.75 0 0 1 65.5,25 Z"/>
</svg>
